<?xml version="1.0" encoding="UTF-8" standalone="no"?>
<svg width="104px" height="46px" viewBox="0 0 210 92" version="1.1" xmlns="http://www.w3.org/2000/svg" xmlns:xlink="http://www.w3.org/1999/xlink">
    <!-- Generator: Sketch 3.8.1 (29687) - http://www.bohemiancoding.com/sketch -->
    <title>VFT Logo</title>
    <desc>Full VFT logo with words and TM</desc>
    <defs>
        <path d="M84.1,15.8245 L84.1,15.9 C84.067,16.467 84,17.167 83.899,17.999 C81.367,33.667 75.533,47.117 66.4,58.35 L66.4,58.45 C63.033,62.717 59.084,66.617 54.551,70.15 C54.516,70.283 54.451,70.384 54.35,70.45 C51.05,73.017 47.584,75.367 43.95,77.499 C42.817,78 41.85,78 41.051,77.499 C37.316,75.367 33.85,73.017 30.65,70.45 C30.55,70.384 30.45,70.283 30.35,70.15 C25.817,66.617 21.916,62.717 18.649,58.45 L18.6,58.35 C10.6,48.518 5.133,36.95 2.2,23.652 C1.666,21.052 1.217,18.5 0.85,16 C0.417,12.701 0.167,9.55 0.1,6.55 L0.1,4.051 C0.033,2.883 0.217,2.018 0.649,1.451 C1.117,0.717 1.784,0.35 2.65,0.35 L68.9,0.35 L68.051,1.3 L68.2,1.3 L66.25,3.2 L3.051,3.2 C2.983,3.466 2.95,3.735 2.95,4 L2.95,6.55 C3.051,9.383 3.317,12.402 3.75,15.6 C4.116,18.133 4.55,20.583 5.051,22.951 C7.85,35.883 13.083,47.1 20.75,56.601 C20.917,56.634 21,56.717 21,56.852 C24.2,60.95 28.017,64.7 32.45,68.102 L32.5,68.102 L32.5,68.2 C35.667,70.667 38.967,72.883 42.4,74.852 L42.499,74.852 C46,72.883 49.333,70.667 52.5,68.2 L52.551,68.102 L52.551,68.049 C57.051,64.65 60.9,60.85 64.1,56.65 L64.15,56.601 C71.85,46.066 78.117,33.15 82.95,17.85 C83.018,17.383 83.067,16.933 83.1,16.5 L83.899,14.951 L83.95,15.05 C84.051,15.217 84.1,15.4 84.1,15.6 L84.1,15.6745 L84.1,15.8245 L84.1,15.8245 Z" id="path-1"></path>
    </defs>
    <g id="Page-1" stroke="none" stroke-width="1" fill="none" fill-rule="evenodd">
        <g>
            <polygon id="Fill-1" fill="currentColor" points="81.2004 23.9137 81.2494 23.9137 81.2494 23.6117"></polygon>
            <polygon id="Fill-2" fill="currentColor" points="146.9497 41.1633 146.9497 33.6633 196.7507 33.5633 196.7507 41.1633 184.2507 41.1633 184.2507 64.5133 175.5507 64.5133 175.5507 41.1633"></polygon>
            <polygon id="Fill-3" fill="currentColor" points="146.9499 33.6634 146.9499 41.1634 175.5499 41.1634 175.5499 64.5134 184.2509 64.5134 184.2509 41.1634 196.7509 41.1634 196.7509 33.5634"></polygon>
            <polygon id="Fill-4" fill="currentColor" points="146.9497 33.6633 146.9497 41.1633 143.5997 41.1633 143.5997 46.7133 163.5997 46.7133 163.5997 54.0133 143.5997 54.0133 143.5997 64.5133 134.6997 64.5133 134.6997 33.6633"></polygon>
            <polygon id="Fill-5" fill="currentColor" points="134.7 33.6634 134.7 64.5134 143.6 64.5134 143.6 54.0134 163.6 54.0134 163.6 46.7134 143.6 46.7134 143.6 41.1634 146.95 41.1634 146.95 33.6634"></polygon>
            <polygon id="Fill-6" fill="currentColor" points="98.8003 33.6633 109.9503 56.3133 121.4003 33.6633 130.9493 33.6633 115.4503 64.5133 104.6003 64.5133 89.2503 33.6633"></polygon>
            <polygon id="Fill-7" fill="currentColor" points="121.3998 33.6634 109.9498 56.3124 98.7998 33.6634 89.2498 33.6634 104.6008 64.5134 115.4498 64.5134 130.9498 33.6634"></polygon>
            <path d="M189.1987,70.7634 C188.7667,70.7634 188.3987,70.8294 188.0997,70.9644 C187.6987,70.9964 187.3837,71.1464 187.1497,71.4124 C186.9167,71.6134 186.7667,71.8634 186.6987,72.1624 C186.6667,72.4294 186.6497,72.8474 186.6497,73.4124 L186.6497,74.1134 C186.6497,74.6794 186.6667,75.1134 186.6987,75.4114 C186.7667,75.6794 186.9167,75.9474 187.1497,76.2134 C187.4177,76.4464 187.7167,76.5964 188.0507,76.6624 C188.3837,76.7304 188.8167,76.7634 189.3497,76.7634 L192.3007,76.7634 C192.6337,76.7634 192.9327,76.7304 193.1997,76.6624 C193.4667,76.5964 193.6987,76.4644 193.8997,76.2634 C194.0667,76.1304 194.1677,75.8964 194.1997,75.5634 C194.2667,75.3294 194.3007,75.0304 194.3007,74.6624 L194.3007,74.4124 L192.5017,74.4124 C192.5017,74.6794 192.4837,74.8624 192.4487,74.9634 C192.3497,75.1304 192.2167,75.2304 192.0507,75.2634 L191.4487,75.2634 L189.5007,75.2634 C189.3007,75.2634 189.1167,75.2464 188.9487,75.2134 C188.7837,75.2134 188.6827,75.1304 188.6497,74.9634 C188.5517,74.8624 188.5007,74.7134 188.5007,74.5134 C188.4327,74.3134 188.3987,74.0464 188.3987,73.7134 C188.3987,73.4804 188.4327,73.2464 188.5007,73.0134 C188.5007,72.8134 188.5167,72.6624 188.5517,72.5634 C188.6157,72.4634 188.7337,72.3794 188.8997,72.3134 C189.0017,72.2804 189.1497,72.2634 189.3497,72.2634 L191.5017,72.2634 C191.8657,72.2634 192.0997,72.3134 192.1987,72.4124 C192.3667,72.4474 192.4487,72.6304 192.4487,72.9634 L194.1997,72.9634 C194.1997,72.7634 194.1827,72.4954 194.1487,72.1624 C194.0847,71.8634 194.0007,71.6134 193.8997,71.4124 C193.8007,71.2134 193.6167,71.0634 193.3497,70.9644 C193.1157,70.8294 192.8167,70.7634 192.4487,70.7634 L189.1987,70.7634 Z M183.3007,70.7634 L183.3007,75.1134 L179.8997,70.7634 L177.0997,70.7634 L177.0997,76.7634 L178.9487,76.7634 L178.9487,72.4634 L182.3997,76.7634 L185.1487,76.7634 L185.1487,70.7634 L183.3007,70.7634 Z M173.8017,76.7634 L175.5517,76.7634 L175.5517,70.7634 L173.8017,70.7634 L173.8017,76.7634 Z" id="Fill-8" fill="currentColor"></path>
            <path d="M164.3501,70.7634 C163.9501,70.7634 163.6171,70.8294 163.3501,70.9644 C163.0831,71.0634 162.8831,71.2134 162.7501,71.4124 C162.6161,71.6134 162.5331,71.7964 162.5001,71.9644 L162.5001,72.6624 L162.5001,73.2634 C162.5331,73.4294 162.6161,73.6124 162.7501,73.8134 C162.8501,74.0134 163.0501,74.1614 163.3501,74.2634 C163.6491,74.3294 164.0671,74.3634 164.6001,74.3634 L167.1491,74.4124 C167.3501,74.4124 167.5341,74.4474 167.6991,74.5134 C167.8331,74.5134 167.9331,74.5634 168.0001,74.6624 C168.0331,74.6974 168.0501,74.7644 168.0501,74.8624 C168.0501,74.9964 168.0331,75.0784 168.0001,75.1134 C167.9331,75.1794 167.8331,75.2304 167.6991,75.2634 L167.1491,75.2634 L164.8011,75.2634 C164.6001,75.2634 164.4841,75.2464 164.4491,75.2134 C164.3171,75.1464 164.2511,75.0134 164.2511,74.8134 L162.5001,74.8134 L162.5001,75.5634 C162.5331,75.7974 162.6161,76.0144 162.7501,76.2134 C162.8501,76.3474 163.0171,76.4644 163.2511,76.5634 C163.5171,76.6974 163.8331,76.7634 164.1991,76.7634 L167.2001,76.7634 C167.7341,76.7634 168.2341,76.6974 168.6991,76.5634 C169.1001,76.4644 169.3831,76.3134 169.5501,76.1134 C169.6501,75.9124 169.7161,75.7134 169.7501,75.5134 C169.8171,75.3134 169.8501,75.0974 169.8501,74.8624 C169.8501,74.6624 169.8171,74.4954 169.7501,74.3634 C169.7501,74.1964 169.6991,74.0134 169.6001,73.8134 C169.5001,73.6124 169.3011,73.4804 169.0011,73.4124 C168.6991,73.3134 168.3171,73.2634 167.8501,73.2634 L165.3501,73.1614 L164.6501,73.1614 C164.5171,73.1614 164.3831,73.0964 164.2511,72.9634 L164.2511,72.7134 C164.2511,72.6124 164.2841,72.5304 164.3501,72.4634 C164.3501,72.3634 164.4331,72.3134 164.6001,72.3134 C164.7001,72.2804 164.8011,72.2634 164.8991,72.2634 L167.0511,72.2634 C167.3501,72.2634 167.5671,72.3134 167.6991,72.4124 C167.8001,72.4474 167.8501,72.5964 167.8501,72.8634 L169.6001,72.8634 L169.6001,72.6624 C169.6001,72.4294 169.5831,72.1974 169.5501,71.9644 C169.5501,71.7304 169.5001,71.5144 169.3991,71.3134 C169.2341,71.1794 169.0171,71.0634 168.7511,70.9644 C168.4841,70.8294 168.2341,70.7634 168.0001,70.7634 L164.3501,70.7634 Z M159.1491,70.7634 L159.1491,75.1134 L155.7501,70.7634 L153.0011,70.7634 L153.0011,76.7634 L154.8501,76.7634 L154.8501,72.4634 L158.2501,76.7634 L161.0011,76.7634 L161.0011,70.7634 L159.1491,70.7634 Z M146.0001,70.7634 C145.5331,70.7634 145.1831,70.8294 144.9491,70.9644 C144.5841,70.9964 144.3001,71.1134 144.1001,71.3134 C143.8661,71.5144 143.7341,71.7304 143.7001,71.9644 C143.6331,72.1974 143.6001,72.5784 143.6001,73.1134 L143.6001,74.3634 C143.6001,74.6974 143.6331,75.0304 143.7001,75.3634 C143.7341,75.7304 143.8661,76.0144 144.1001,76.2134 C144.3001,76.4464 144.5841,76.5964 144.9491,76.6624 C145.3501,76.7304 145.7501,76.7634 146.1501,76.7634 L149.0511,76.7634 C149.5501,76.7634 149.9841,76.6974 150.3501,76.5634 C150.7161,76.4644 150.9671,76.3474 151.1001,76.2134 C151.3341,76.0464 151.4661,75.8294 151.5001,75.5634 C151.5671,75.3294 151.6001,75.0464 151.6001,74.7134 L151.6001,72.8634 C151.6001,72.4954 151.5671,72.1974 151.5001,71.9644 C151.4661,71.6974 151.3341,71.4634 151.1001,71.2634 C150.9001,71.0964 150.6161,70.9964 150.2501,70.9644 C150.0171,70.8294 149.6831,70.7634 149.2501,70.7634 L146.0001,70.7634 Z M145.8501,75.2134 C145.7161,75.1464 145.6171,75.0634 145.5501,74.9634 C145.4501,74.8624 145.4001,74.7644 145.4001,74.6624 L145.4001,74.2144 L145.4001,73.4124 C145.4001,73.0134 145.4161,72.7304 145.4501,72.5634 C145.5841,72.4634 145.7161,72.3794 145.8501,72.3134 C146.0171,72.2804 146.1991,72.2634 146.4001,72.2634 L148.6991,72.2634 C148.9331,72.2634 149.1161,72.2804 149.2501,72.3134 C149.4491,72.3794 149.5831,72.4634 149.6501,72.5634 C149.7161,72.6624 149.7511,72.7964 149.7511,72.9634 C149.7841,73.0634 149.8001,73.2144 149.8001,73.4124 L149.8001,74.2144 C149.8001,74.3464 149.7841,74.4954 149.7511,74.6624 C149.7511,74.7644 149.7161,74.8624 149.6501,74.9634 C149.5501,75.1304 149.4171,75.2134 149.2501,75.2134 C149.1161,75.2464 148.9331,75.2634 148.6991,75.2634 L146.4001,75.2634 C146.1991,75.2634 146.0171,75.2464 145.8501,75.2134 L145.8501,75.2134 Z M140.1491,76.7634 L141.8991,76.7634 L141.8991,70.7634 L140.1491,70.7634 L140.1491,76.7634 Z M131.9501,70.7634 L131.9501,72.2634 L134.5001,72.2634 L134.5001,76.7634 L136.2511,76.7634 L136.2511,72.2634 L138.8001,72.2634 L138.8001,70.7634 L131.9501,70.7634 Z M128.8991,70.7634 L128.8991,74.2144 L128.8991,74.7134 C128.8991,74.8804 128.8501,74.9964 128.7501,75.0634 C128.7161,75.1614 128.6171,75.2304 128.4491,75.2634 L128.0001,75.2634 L127.8501,75.2634 L126.1501,75.2634 L125.7501,75.2634 C125.5831,75.2304 125.4501,75.1614 125.3501,75.0634 C125.2501,74.9294 125.2001,74.7974 125.2001,74.6624 C125.1661,74.4644 125.1501,74.2304 125.1501,73.9634 L125.1501,70.7634 L123.3501,70.7634 L123.3501,74.3634 C123.3501,74.6974 123.3661,75.0464 123.4001,75.4114 C123.4661,75.7454 123.6341,76.0144 123.9001,76.2134 C124.1001,76.4114 124.3011,76.5634 124.5001,76.6624 C124.6991,76.7304 124.9841,76.7634 125.3501,76.7634 L128.1991,76.7634 C128.7341,76.7634 129.1501,76.7304 129.4491,76.6624 C129.7501,76.5964 130.0171,76.4644 130.2501,76.2634 C130.4491,76.0634 130.5671,75.8624 130.6001,75.6624 C130.6991,75.4644 130.7511,75.1304 130.7511,74.6624 L130.7511,70.7634 L128.8991,70.7634 Z M116.1501,70.7634 L116.1501,76.7634 L122.0511,76.7634 L122.0511,75.2634 L117.9491,75.2634 L117.9491,70.7634 L116.1501,70.7634 Z M109.1001,70.7634 C108.6331,70.7634 108.2831,70.8294 108.0501,70.9644 C107.6841,70.9964 107.3991,71.1134 107.2001,71.3134 C106.9661,71.5144 106.8331,71.7304 106.8001,71.9644 C106.7331,72.1974 106.7001,72.5784 106.7001,73.1134 L106.7001,74.3634 C106.7001,74.6974 106.7331,75.0304 106.8001,75.3634 C106.8331,75.7304 106.9661,76.0144 107.2001,76.2134 C107.3991,76.4464 107.6841,76.5964 108.0501,76.6624 C108.4501,76.7304 108.8501,76.7634 109.2501,76.7634 L112.1501,76.7634 C112.6501,76.7634 113.0841,76.6974 113.4501,76.5634 C113.8161,76.4644 114.0671,76.3474 114.2001,76.2134 C114.4341,76.0464 114.5671,75.8294 114.6001,75.5634 C114.6671,75.3294 114.7001,75.0464 114.7001,74.7134 L114.7001,72.8634 C114.7001,72.4954 114.6671,72.1974 114.6001,71.9644 C114.5671,71.6974 114.4341,71.4634 114.2001,71.2634 C114.0001,71.0964 113.7161,70.9964 113.3501,70.9644 C113.1161,70.8294 112.7831,70.7634 112.3501,70.7634 L109.1001,70.7634 Z M108.9501,75.2134 C108.7831,75.1464 108.6841,75.0634 108.6491,74.9634 C108.5511,74.8624 108.5001,74.7644 108.5001,74.6624 L108.5001,74.2144 L108.5001,73.4124 C108.5001,73.0134 108.5161,72.7304 108.5511,72.5634 C108.6491,72.4634 108.7831,72.3794 108.9501,72.3134 C109.1171,72.2804 109.3001,72.2634 109.5001,72.2634 L111.8001,72.2634 C112.0341,72.2634 112.2171,72.2804 112.3501,72.3134 C112.5501,72.3794 112.6831,72.4634 112.7501,72.5634 C112.7831,72.6624 112.8001,72.7964 112.8001,72.9634 C112.8671,73.0634 112.9001,73.2144 112.9001,73.4124 L112.9001,74.2144 C112.9001,74.3464 112.8671,74.4954 112.8001,74.6624 C112.8001,74.7644 112.7831,74.8624 112.7501,74.9634 C112.6501,75.1304 112.5171,75.2134 112.3501,75.2134 C112.2171,75.2464 112.0341,75.2634 111.8001,75.2634 L109.5001,75.2634 C109.3001,75.2634 109.1171,75.2464 108.9501,75.2134 L108.9501,75.2134 Z M99.7501,70.7634 C99.3501,70.7634 99.0171,70.8294 98.7501,70.9644 C98.6981,70.9834 98.6481,71.0074 98.6001,71.0374 C98.4011,71.1274 98.2351,71.2524 98.1001,71.4124 C98.0001,71.6134 97.9331,71.7964 97.9001,71.9644 L97.9001,72.6624 L97.9001,73.2634 C97.9331,73.4294 98.0001,73.6124 98.1001,73.8134 C98.2091,73.9784 98.3761,74.1114 98.6001,74.2144 C98.6481,74.2294 98.6971,74.2454 98.7501,74.2634 C99.0501,74.3294 99.4671,74.3634 100.0001,74.3634 L102.5501,74.4124 C102.7501,74.4124 102.9341,74.4474 103.1001,74.5134 C103.2331,74.5134 103.3331,74.5634 103.4001,74.6624 C103.4331,74.6974 103.4501,74.7644 103.4501,74.8624 C103.4501,74.9964 103.4331,75.0784 103.4001,75.1134 C103.3331,75.1794 103.2331,75.2304 103.1001,75.2634 L102.5501,75.2634 L100.2001,75.2634 C100.0001,75.2634 99.8831,75.2464 99.8501,75.2134 C99.7171,75.1464 99.6491,75.0134 99.6491,74.8134 L97.9001,74.8134 L97.9001,75.5634 C97.9331,75.7974 98.0001,76.0144 98.1001,76.2134 C98.2241,76.3374 98.3901,76.4454 98.6001,76.5364 C98.6161,76.5474 98.6331,76.5564 98.6501,76.5634 C98.9171,76.6974 99.2341,76.7634 99.6001,76.7634 L102.6001,76.7634 C103.1331,76.7634 103.6331,76.6974 104.1001,76.5634 C104.5001,76.4644 104.7831,76.3134 104.9501,76.1134 C105.0501,75.9124 105.1171,75.7134 105.1491,75.5134 C105.2171,75.3134 105.2501,75.0974 105.2501,74.8624 C105.2501,74.6624 105.2171,74.4954 105.1491,74.3634 C105.1491,74.1964 105.1001,74.0134 105.0001,73.8134 C104.9001,73.6124 104.7001,73.4804 104.4001,73.4124 C104.1001,73.3134 103.7171,73.2634 103.2501,73.2634 L100.7501,73.1614 L100.0501,73.1614 C99.9171,73.1614 99.7831,73.0964 99.6491,72.9634 L99.6491,72.7134 C99.6491,72.6124 99.6841,72.5304 99.7501,72.4634 C99.7501,72.3634 99.8331,72.3134 100.0001,72.3134 C100.1001,72.2804 100.2001,72.2634 100.3001,72.2634 L102.4501,72.2634 C102.7501,72.2634 102.9671,72.3134 103.1001,72.4124 C103.2001,72.4474 103.2501,72.5964 103.2501,72.8634 L105.0001,72.8634 L105.0001,72.6624 C105.0001,72.4294 104.9831,72.1974 104.9501,71.9644 C104.9501,71.7304 104.9001,71.5144 104.8001,71.3134 C104.6331,71.1794 104.4171,71.0634 104.1491,70.9644 C103.8831,70.8294 103.6331,70.7634 103.4001,70.7634 L99.7501,70.7634 Z" id="Fill-16" fill="currentColor"></path>
            <path d="M2.6499,14.4631 C1.7839,14.4631 1.1169,14.8301 0.6489,15.5631 C0.2169,16.1301 0.0329,16.9961 0.0999,18.1631 L0.0999,20.6631 C0.1669,23.6631 0.4169,26.8131 0.8499,30.1131 C1.2169,32.6131 1.6659,35.1641 2.1999,37.7641 C5.1329,51.0631 10.5999,62.6301 18.5999,72.4641 L18.6489,72.5631 C21.9159,76.8301 25.8169,80.7301 30.3499,84.2631 C30.4499,84.3961 30.5499,84.4971 30.6499,84.5631 C33.8499,87.1301 37.3159,89.4801 41.0509,91.6121 C41.8499,92.1131 42.8169,92.1131 43.9499,91.6121 C47.5839,89.4801 51.0499,87.1301 54.3499,84.5631 C54.4499,84.4971 54.5159,84.3961 54.5509,84.2631 C59.0839,80.7301 63.0329,76.8301 66.3999,72.5631 L66.3999,72.4641 C75.5329,61.2301 81.3669,47.7801 83.8989,32.1121 C83.9999,31.2801 84.0669,30.5801 84.0999,30.0131 L84.0999,29.8621 L84.0999,29.7131 C84.0999,29.5131 84.0499,29.3301 83.9499,29.1631 L83.8989,29.0631 L83.0999,30.6131 C83.0669,31.0461 83.0169,31.4961 82.9499,31.9631 C78.1169,47.2631 71.8499,60.1791 64.1499,70.7141 L64.0999,70.7631 C60.8999,74.9641 57.0499,78.7631 52.5499,82.1621 L52.5499,82.2141 L52.4999,82.3131 C49.3329,84.7801 45.9999,86.9961 42.4989,88.9641 L42.3999,88.9641 C38.9669,86.9961 35.6669,84.7801 32.4999,82.3131 L32.4999,82.2141 L32.4499,82.2141 C28.0169,78.8131 24.1999,75.0631 20.9999,70.9641 C20.9999,70.8301 20.9169,70.7471 20.7499,70.7141 C13.0829,61.2141 7.8499,49.9961 5.0509,37.0631 C4.5499,34.6961 4.1159,32.2461 3.7499,29.7131 C3.3169,26.5141 3.0499,23.4961 2.9499,20.6631 L2.9499,18.1131 C2.9499,17.8471 2.9829,17.5791 3.0499,17.3131 L66.2499,17.3131 L68.1999,15.4131 L68.0509,15.4131 L68.8999,14.4631 L2.6499,14.4631 Z" id="Fill-21" fill="currentColor"></path>
            <g id="Group-25" transform="translate(0.000000, 14.113000)">
                <mask id="mask-2" fill="white">
                    <use xlink:href="#path-1"></use>
                </mask>
                <g id="Clip-24"></g>
            </g>
            <path d="M3.12097168,16 C3.05397168,16.266 2.21472168,18.1389072 2.21472168,18.4049072 L1.80847168,20.9049072 C1.90847168,23.7379072 2.68797168,26.7684072 3.12097168,29.9674072 C3.48697168,32.5004072 4.08872168,34.7566572 4.58972168,37.1236572 C7.38872168,50.0566572 12.8602217,61.2132015 20.5272217,70.7132015 C20.6942217,70.7472015 20.7147217,71.1771553 20.7147217,71.3111553 C23.9147217,75.4101553 27.4379717,79.0664053 31.8709717,82.4674053 L32.3084717,82.9049053 C35.4754717,85.3719053 38.7817217,87.3744053 42.2147217,89.3424053 L42.8397217,89.3424053 C46.3407217,87.3744053 49.3928145,85.3719053 52.5598145,82.9049053 L52.8098145,82.6249981 L53.1834717,82.214201 C57.6834717,78.815201 61.2973145,75.2312481 64.4973145,71.0312481 L64.4973145,70.7632008 C72.1973145,60.2292008 78.5705645,47.39375 83.4035645,32.09375 C83.4705645,31.62675 83.0673,31.0462 83.1003,30.6132 L72.2003,52.9122 C71.6333,54.2142 71.0503,55.5302 70.4503,56.8622 C70.1833,57.2132 70.0503,57.4472 69.9503,57.7132 C68.5173,60.3802 66.8173,63.0802 64.8503,65.8132 C62.9503,68.4122 60.7833,70.8632 58.3503,73.1622 C53.9173,77.5632 48.9673,81.2302 43.5003,84.1622 C42.8673,84.4302 42.2003,84.4302 41.5003,84.1622 C35.9663,81.2302 30.9673,77.5632 26.5003,73.1622 C21.8343,68.4292 17.9833,63.2802 14.9503,57.7132 C11.6503,51.2802 9.2503,44.6302 7.7503,37.7642 C7.7833,37.5802 7.7003,37.2972 7.6003,36.9632 C6.6343,31.6802 6.1003,26.2632 6.0003,20.6632 C6.0003,20.5632 6.0503,20.4302 6.1493,20.2632 C6.2503,20.1632 6.3503,20.1132 6.4503,20.1132 L63.4003,20.1132 L66.7460937,16.875 L3.12097168,16 Z" id="Fill-26" fill="currentColor"></path>
            <path d="M42.8999,67.2136 C42.5669,70.0136 42.1489,72.1296 41.6499,73.5636 C56.5159,62.0636 72.3829,37.7476 89.2499,0.6116 C75.3169,23.9146 59.8669,46.1126 42.8999,67.2136" id="Fill-31" fill="currentColor"></path>
            <path d="M43.8696296,66.6328121 C33.5834318,55.9990022 24.6985901,44.8035266 17.7493286,32.6582032 C16.6820286,30.7928679 15.304092,29.0847646 14.3499,27.1632 C14.5992473,27.9493937 14.8513267,28.7272602 15.1061383,29.4967996 C21.9710058,50.2289243 30.8189264,64.9171268 41.6499,73.5632 C42.1489,72.1292 43.5366296,69.4328121 43.8696296,66.6328121 Z" id="Fill-35" fill="currentColor"></path>
            <path d="M41.6499,50.7634 C43.5169,56.3634 42.6829,67.8283163 41.6499,73.1953163 C58.6169,52.0953163 75.3169,23.9144 89.2499,0.6124 L41.6499,50.7634 Z" id="Fill-40" fill="currentColor"></path>
            <path d="M42.8999,67.2136 C43.9329,61.8466 50.1574714,50.5025626 41.6499,50.7636 L14.3499,27.1636 C21.5169,41.5966 31.0339,54.9456 42.8999,67.2136 L38.0544434,53.380127" id="Fill-45" fill="currentColor"></path>
            <g id="Group-49" transform="translate(14.000000, 27.113000)"></g>
            <g id="Group-51" transform="translate(199.000000, 31.113000)" font-size="6.1644" font-family="Helvetica" fill="currentColor" font-weight="normal">
                <text id="TM">
                    <tspan x="0.7866" y="6.6881">TM</tspan>
                </text>
            </g>
        </g>
    </g>
</svg>